<svg id="Ebene_1" data-name="Ebene 1" xmlns="http://www.w3.org/2000/svg" viewBox="0 0 216.92 130"><defs><style>.cls-1{fill:#fff;}</style></defs><title>DataCite-Logo</title><path class="cls-1" d="M8.54,124.29a.7.7,0,0,1-.2-.49V85.26A.68.68,0,0,1,9,84.58H23.28a17.46,17.46,0,0,1,7.5,1.51,11.64,11.64,0,0,1,5,4.24,11.5,11.5,0,0,1,1.76,6.33V112.4a11.5,11.5,0,0,1-1.76,6.33,11.72,11.72,0,0,1-5,4.25,17.61,17.61,0,0,1-7.5,1.51H9A.7.7,0,0,1,8.54,124.29Zm8.13-6.7h6.9a5.49,5.49,0,0,0,4.24-1.77,6.9,6.9,0,0,0,1.69-4.73V98a6.74,6.74,0,0,0-1.63-4.73,5.63,5.63,0,0,0-4.36-1.77H16.67a.26.26,0,0,0-.29.29V117.3A.26.26,0,0,0,16.67,117.59Z"/><path class="cls-1" d="M61.2,96a10.9,10.9,0,0,1,4.53,3.5,8.25,8.25,0,0,1,1.62,5V123.8a.68.68,0,0,1-.68.69H60a.68.68,0,0,1-.69-.69v-1.88a.23.23,0,0,0-.11-.23c-.08,0-.15,0-.23.12-1.59,2.09-4.16,3.13-7.69,3.13a11.28,11.28,0,0,1-7.19-2.16,7.69,7.69,0,0,1-2.74-6.39,8.16,8.16,0,0,1,3.08-6.81c2.06-1.62,5-2.43,8.78-2.43H59a.24.24,0,0,0,.28-.28v-1.26a3.79,3.79,0,0,0-1.14-2.93,4.9,4.9,0,0,0-3.42-1.06,6.11,6.11,0,0,0-2.93.63A2.91,2.91,0,0,0,50.31,104c-.12.42-.37.61-.74.57l-6.9-.91c-.46-.08-.67-.25-.63-.52A7.59,7.59,0,0,1,44,98.83a11.08,11.08,0,0,1,4.45-3,16.84,16.84,0,0,1,6.18-1.09A16.19,16.19,0,0,1,61.2,96Zm-3.6,21.64a4.08,4.08,0,0,0,1.71-3.37v-2c0-.19-.09-.29-.28-.29H54.92a7.24,7.24,0,0,0-4,1,3.13,3.13,0,0,0-1.45,2.74,3,3,0,0,0,1.08,2.42,4.47,4.47,0,0,0,2.91.89A6.65,6.65,0,0,0,57.6,117.65Z"/><path class="cls-1" d="M87.85,101.42a.62.62,0,0,1-.48.2H81.89c-.19,0-.28.1-.28.29V114a4.22,4.22,0,0,0,.77,2.79,3.06,3.06,0,0,0,2.48.91h1.88a.68.68,0,0,1,.68.69v5.41a.69.69,0,0,1-.68.74q-2.4.12-3.42.12c-3.16,0-5.51-.52-7.07-1.57s-2.36-3-2.4-5.9V101.91c0-.19-.09-.29-.28-.29H70.32a.68.68,0,0,1-.69-.68V95.87a.68.68,0,0,1,.2-.49.7.7,0,0,1,.49-.2h3.25a.24.24,0,0,0,.28-.28V88.11a.68.68,0,0,1,.69-.68h6.38a.68.68,0,0,1,.69.68V94.9a.24.24,0,0,0,.28.28h5.48a.66.66,0,0,1,.48.2.68.68,0,0,1,.2.49v5.07A.66.66,0,0,1,87.85,101.42Z"/><path class="cls-1" d="M111.2,96a10.84,10.84,0,0,1,4.53,3.5,8.26,8.26,0,0,1,1.63,5V123.8a.68.68,0,0,1-.69.69H110a.68.68,0,0,1-.68-.69v-1.88a.24.24,0,0,0-.12-.23c-.07,0-.15,0-.23.12-1.59,2.09-4.16,3.13-7.69,3.13a11.28,11.28,0,0,1-7.19-2.16,7.68,7.68,0,0,1-2.73-6.39,8.14,8.14,0,0,1,3.08-6.81q3.07-2.43,8.78-2.43H109c.19,0,.29-.09.29-.28v-1.26a3.79,3.79,0,0,0-1.14-2.93,4.9,4.9,0,0,0-3.42-1.06,6.15,6.15,0,0,0-2.94.63,2.94,2.94,0,0,0-1.51,1.77c-.12.42-.36.61-.74.57l-6.9-.91c-.46-.08-.67-.25-.63-.52A7.59,7.59,0,0,1,94,98.83a11.08,11.08,0,0,1,4.45-3,16.84,16.84,0,0,1,6.18-1.09A16.19,16.19,0,0,1,111.2,96Zm-3.59,21.64a4.08,4.08,0,0,0,1.71-3.37v-2a.26.26,0,0,0-.29-.29h-4.1a7.24,7.24,0,0,0-4,1,3.11,3.11,0,0,0-1.46,2.74,2.93,2.93,0,0,0,1.09,2.42,4.44,4.44,0,0,0,2.9.89A6.67,6.67,0,0,0,107.61,117.65Z"/><path class="cls-1" d="M130.53,123.43a11.36,11.36,0,0,1-4.71-4.45,12.9,12.9,0,0,1-1.68-6.64V96.66a12.65,12.65,0,0,1,1.68-6.55,11.42,11.42,0,0,1,4.71-4.42,14.94,14.94,0,0,1,7-1.57,15.18,15.18,0,0,1,7,1.54A11.47,11.47,0,0,1,149.26,90a12.28,12.28,0,0,1,1.68,6.45.61.61,0,0,1-.17.45.54.54,0,0,1-.4.17l-2.91.17q-.57,0-.57-.51v-.17a8.47,8.47,0,0,0-2.57-6.47,10.64,10.64,0,0,0-13.57,0,8.49,8.49,0,0,0-2.56,6.44v16a8.53,8.53,0,0,0,2.56,6.45,10.65,10.65,0,0,0,13.57,0,8.47,8.47,0,0,0,2.57-6.47v-.11q0-.51.57-.51l2.91.17q.57,0,.57.51a12.52,12.52,0,0,1-1.68,6.53,11.41,11.41,0,0,1-4.71,4.36,15.18,15.18,0,0,1-7,1.54A14.94,14.94,0,0,1,130.53,123.43Z"/><path class="cls-1" d="M156.81,89.48a3.35,3.35,0,0,1,0-4.59,3.39,3.39,0,0,1,4.56,0,3.24,3.24,0,0,1-4.56,4.59Zm.11,34.38V96.15a.5.5,0,0,1,.57-.57h2.91a.5.5,0,0,1,.57.57v27.71a.5.5,0,0,1-.57.57h-2.91A.5.5,0,0,1,156.92,123.86Z"/><path class="cls-1" d="M181.55,99h-6.44a.21.21,0,0,0-.23.23v16.82c0,1.82.41,3.11,1.23,3.85A5.62,5.62,0,0,0,180,121h1.42a.5.5,0,0,1,.57.57v2.34a.5.5,0,0,1-.57.57c-.45,0-1.16.05-2.11.05q-4.1,0-6.21-1.54T171,117.3V99.23a.21.21,0,0,0-.23-.23h-3.48a.5.5,0,0,1-.57-.57V96.21a.5.5,0,0,1,.57-.57h3.48a.21.21,0,0,0,.23-.23V88.8a.5.5,0,0,1,.57-.57h2.79a.5.5,0,0,1,.57.57v6.61a.21.21,0,0,0,.23.23h6.44a.5.5,0,0,1,.57.57v2.22A.5.5,0,0,1,181.55,99Z"/><path class="cls-1" d="M208.58,109.21V111a.5.5,0,0,1-.57.57H189.59c-.15,0-.22.08-.22.23a25.11,25.11,0,0,0,.34,4,6.83,6.83,0,0,0,2.68,4.05,8.78,8.78,0,0,0,5.24,1.48,8,8,0,0,0,4.22-1.09,7.36,7.36,0,0,0,2.85-3.07c.23-.35.5-.42.8-.23l2.22,1.31a.57.57,0,0,1,.23.8,10.23,10.23,0,0,1-4.27,4.3,13.35,13.35,0,0,1-6.56,1.57,12,12,0,0,1-6.79-1.94,10.4,10.4,0,0,1-3.93-5.24,23.55,23.55,0,0,1-1-7.87c0-1.6,0-2.9.09-3.91a12.61,12.61,0,0,1,.43-2.71,10.54,10.54,0,0,1,3.9-5.93,11.45,11.45,0,0,1,7.1-2.22c3.46,0,6.12.88,8,2.62a12.09,12.09,0,0,1,3.48,7.42A29.19,29.19,0,0,1,208.58,109.21Zm-16.34-9a6.75,6.75,0,0,0-2.42,3.91,17.93,17.93,0,0,0-.45,3.87c0,.15.07.23.22.23h14.77a.21.21,0,0,0,.23-.23,26.83,26.83,0,0,0-.34-3.65,7.2,7.2,0,0,0-2.54-4.07,7.53,7.53,0,0,0-4.82-1.51A7.31,7.31,0,0,0,192.24,100.17Z"/><path class="cls-1" d="M72.05,48.82c.54.1,1,.2,1.67.3C101.2,54.57,142.1,47.35,147.36,34c4.13-10.77-18.93-18.38-45.86-17.45a8.39,8.39,0,0,0-1.58.1c14.36,1.42,27.28,7.12,22.12,16-5.65,9.73-29.59,16.22-50,16.12"/><path class="cls-1" d="M132.22,50.18c-4.77,28.9-29.74,11.65-35.64-8.45C88,20.84,95.65-6,117,9.73c-17.7-8.11-19.56,15.38-12,32.09,6.29,14,19.95,23,26.54,8.56.29-.1.54-.1.64-.2"/></svg>