<?xml version="1.0" encoding="utf-8"?>
<!-- Generator: Adobe Illustrator 19.1.0, SVG Export Plug-In . SVG Version: 6.00 Build 0)  -->
<svg version="1.1" id="Capa_1" xmlns="http://www.w3.org/2000/svg" xmlns:xlink="http://www.w3.org/1999/xlink" x="0px" y="0px"
	 viewBox="-276.9 368.5 55.9 57" style="enable-background:new -276.9 368.5 55.9 57;" xml:space="preserve">
<style type="text/css">
	.st0{fill:#F26222;stroke:#F26222;stroke-miterlimit:10;}
</style>
<g>
	<path class="st0" d="M-225.6,413.3c-0.4-4.1-3.9-7.3-8-7.3c-2.6,0-5,1.3-6.5,3.4c-0.3-0.1-0.6-0.1-0.9-0.1c-2.3,0-4.4,1.6-5.1,3.8
		c-1.9,1.1-3.1,3.2-3.1,5.5c0,3.5,2.8,6.4,6.2,6.4h10.8c0.1,0,0.1,0,0.2,0c0.1,0,0.1,0,0.2,0h4.3c3.2,0,5.8-2.7,5.8-6
		C-221.6,416.4-223.2,414.1-225.6,413.3z M-227.4,423l-4.4,0l-0.2,0l-10.9,0c-2.3,0-4.2-2-4.2-4.4c0-1.7,0.9-3.2,2.4-3.9l0.4-0.2
		l0.1-0.5c0.3-1.6,1.7-2.7,3.2-2.7c0.3,0,0.7,0.1,1,0.2l0.8,0.3l0.4-0.7c1.1-1.9,3-3,5.2-3c3.3,0,6,2.7,6,6.1l0,0.8l0.8,0.2
		c1.8,0.4,3.1,2,3.1,3.9C-223.6,421.2-225.3,423-227.4,423z"/>
	<path class="st0" d="M-251.4,410c-0.8,0-1.6,0-2.4,0c-0.5,0-1,0-1.4-0.1c-0.3,0-0.6,0-0.9,0c-0.6,0-1.2-0.1-1.8-0.2
		c-0.1,0-0.2,0-0.3,0c-0.7-0.1-1.4-0.2-2-0.3c0,0,0,0-0.1,0c-3.4-0.5-6.3-1.3-8.6-2.2c0,0,0,0,0,0c-0.4-0.2-0.8-0.3-1.2-0.5
		c0,0-0.1,0-0.1-0.1c-0.3-0.2-0.6-0.3-0.9-0.5c-0.1,0-0.1-0.1-0.2-0.1c-0.3-0.2-0.5-0.3-0.7-0.5c-0.1-0.1-0.2-0.1-0.3-0.2
		c-0.2-0.1-0.4-0.3-0.5-0.4c-0.1-0.1-0.2-0.2-0.3-0.2c-0.1-0.1-0.3-0.3-0.4-0.4c-0.1-0.1-0.2-0.2-0.2-0.3c-0.1-0.1-0.2-0.2-0.2-0.4
		c-0.1-0.1-0.1-0.2-0.1-0.3c0-0.1-0.1-0.2-0.1-0.4c0-0.2-0.1-0.3-0.1-0.5v-8.2c0,0,0.1,0.1,0.1,0.1c0.2,0.2,0.4,0.4,0.7,0.6
		c3.8,2.9,11.3,5.1,22.2,5.1c10.9,0,18.4-2.2,22.2-5c0.3-0.2,0.6-0.4,0.8-0.7h0v8.7c0,0.6,0.4,1,1,1c0.6,0,1-0.4,1-1v-12v-0.5v-12
		V378c0-0.2-0.1-0.3-0.1-0.5c-1.2-4.3-9.8-8.5-24.9-8.5s-23.7,4.2-24.9,8.5c-0.1,0.1-0.1,0.3-0.1,0.5v0.5v12v0.5v11.5v0.5v12
		c0,0.2,0,0.3,0.1,0.4c1.1,4.8,10.7,7.7,19.8,8.4c0,0,0.1,0,0.1,0c0.5,0,1-0.4,1-0.9c0-0.6-0.4-1-0.9-1.1c-11.1-0.8-17.6-4.2-18-7
		c0,0,0-0.1,0-0.1v-8.4c0,0,0.1,0.1,0.1,0.1c0.2,0.2,0.4,0.4,0.7,0.6c3.8,2.9,11.3,5.1,22.2,5.1c0.6,0,1-0.4,1-1
		S-250.9,410-251.4,410z M-273.8,382.8c0.3,0.2,0.6,0.5,1,0.7c0.1,0,0.2,0.1,0.2,0.1c0.3,0.2,0.6,0.4,0.9,0.5
		c0.1,0.1,0.2,0.1,0.4,0.2c0.4,0.2,0.7,0.4,1.2,0.5c0.1,0,0.1,0.1,0.2,0.1c0.5,0.2,1,0.4,1.5,0.6c0.1,0.1,0.3,0.1,0.4,0.1
		c0.4,0.1,0.8,0.3,1.3,0.4c0.2,0,0.3,0.1,0.5,0.1c0.6,0.2,1.2,0.3,1.8,0.5c0.1,0,0.2,0,0.3,0.1c0.6,0.1,1.1,0.2,1.7,0.3
		c0.2,0,0.4,0.1,0.6,0.1c0.6,0.1,1.2,0.2,1.8,0.3c0.2,0,0.3,0,0.5,0.1c0.7,0.1,1.5,0.2,2.3,0.2c0.2,0,0.4,0,0.6,0
		c0.6,0,1.3,0.1,1.9,0.1c0.2,0,0.5,0,0.7,0c0.9,0,1.7,0,2.7,0s1.8,0,2.6,0c0.2,0,0.5,0,0.7,0c0.7,0,1.3-0.1,1.9-0.1
		c0.2,0,0.4,0,0.6,0c0.8-0.1,1.6-0.1,2.3-0.2c0.2,0,0.3,0,0.5-0.1c0.6-0.1,1.2-0.2,1.8-0.3c0.2,0,0.4-0.1,0.6-0.1
		c0.6-0.1,1.2-0.2,1.7-0.3c0.1,0,0.2,0,0.3-0.1c0.6-0.1,1.2-0.3,1.8-0.5c0.2,0,0.3-0.1,0.5-0.1c0.4-0.1,0.9-0.3,1.3-0.4
		c0.1,0,0.3-0.1,0.4-0.1c0.5-0.2,1-0.4,1.5-0.6c0.1,0,0.1-0.1,0.2-0.1c0.4-0.2,0.8-0.4,1.2-0.5c0.1-0.1,0.2-0.1,0.4-0.2
		c0.3-0.2,0.6-0.4,0.9-0.5c0.1,0,0.2-0.1,0.2-0.1c0.4-0.2,0.7-0.5,1-0.7c0.1-0.1,0.1-0.1,0.2-0.2c0.1-0.1,0.3-0.2,0.4-0.3v8.2
		c0,0.2,0,0.3-0.1,0.5c0,0.1-0.1,0.2-0.1,0.4c0,0.1-0.1,0.2-0.1,0.3c-0.1,0.1-0.1,0.2-0.2,0.4c-0.1,0.1-0.1,0.2-0.2,0.3
		c-0.1,0.1-0.2,0.3-0.4,0.4c-0.1,0.1-0.2,0.2-0.3,0.2c-0.2,0.1-0.3,0.3-0.5,0.4c-0.1,0.1-0.2,0.1-0.3,0.2c-0.2,0.2-0.5,0.3-0.7,0.5
		c-0.1,0-0.1,0.1-0.2,0.1c-0.3,0.2-0.6,0.3-0.9,0.5c0,0-0.1,0-0.1,0.1c-0.4,0.2-0.8,0.4-1.2,0.5c0,0,0,0,0,0
		c-2.3,0.9-5.2,1.7-8.6,2.2c0,0,0,0-0.1,0c-0.7,0.1-1.3,0.2-2,0.3c-0.1,0-0.2,0-0.3,0c-0.6,0.1-1.2,0.1-1.8,0.2c-0.3,0-0.6,0-0.9,0
		c-0.5,0-0.9,0.1-1.4,0.1c-0.8,0-1.6,0-2.4,0s-1.6,0-2.4,0c-0.5,0-1,0-1.4-0.1c-0.3,0-0.6,0-0.9,0c-0.6,0-1.2-0.1-1.8-0.2
		c-0.1,0-0.2,0-0.3,0c-0.7-0.1-1.4-0.2-2-0.3c0,0,0,0-0.1,0c-3.4-0.5-6.3-1.3-8.6-2.2c0,0,0,0,0,0c-0.4-0.2-0.8-0.3-1.2-0.5
		c0,0-0.1,0-0.1-0.1c-0.3-0.2-0.6-0.3-0.9-0.5c-0.1,0-0.1-0.1-0.2-0.1c-0.3-0.2-0.5-0.3-0.7-0.5c-0.1-0.1-0.2-0.1-0.3-0.2
		c-0.2-0.1-0.4-0.3-0.5-0.4c-0.1-0.1-0.2-0.2-0.3-0.2c-0.1-0.1-0.3-0.3-0.4-0.4c-0.1-0.1-0.2-0.2-0.2-0.3c-0.1-0.1-0.2-0.2-0.2-0.4
		c-0.1-0.1-0.1-0.2-0.1-0.3c0-0.1-0.1-0.2-0.1-0.4c0-0.2-0.1-0.3-0.1-0.5v-8.2c0.1,0.1,0.3,0.2,0.4,0.3
		C-274,382.7-273.9,382.7-273.8,382.8z M-251.4,371c13.6,0,23,4,23,7.5s-9.4,7.5-23,7.5s-23-4-23-7.5S-265,371-251.4,371z"/>
</g>
</svg>
