<?xml version="1.0" encoding="utf-8"?>
<!-- Generator: Adobe Illustrator 19.1.0, SVG Export Plug-In . SVG Version: 6.00 Build 0)  -->
<svg version="1.1" id="Capa_1" xmlns="http://www.w3.org/2000/svg" xmlns:xlink="http://www.w3.org/1999/xlink" x="0px" y="0px"
	 viewBox="-88 179.5 434.5 434.5" style="enable-background:new -88 179.5 434.5 434.5;" xml:space="preserve">
<style type="text/css">
	.st0{fill:#F26222;}
</style>
<path class="st0" d="M279.7,594h-18.2v-42.3c0-5.5-4.5-10-10-10h-32.8v-34.6c20.5-13.3,37.8-31.3,50.1-52.5
	c13.7-23.5,20.9-50.5,20.9-77.8c0-27.3-7.2-54.2-20.9-77.7c-11.4-19.7-27.1-36.7-45.8-49.7l4.5-6.5l2.1,1.5c1.7,1.2,3.7,1.8,5.7,1.8
	c3.2,0,6.3-1.5,8.2-4.3c3.2-4.5,2.1-10.8-2.5-13.9l-10.3-7.2c0,0,0,0-0.1,0l-46-32.2c0,0,0,0,0,0l-10.3-7.2
	c-4.5-3.2-10.8-2.1-13.9,2.5c-3.2,4.5-2.1,10.8,2.5,13.9l2.1,1.5l-19.5,27.9l-2.1-1.5c-4.5-3.2-10.8-2.1-13.9,2.5
	c-3.2,4.5-2.1,10.8,2.5,13.9l2.1,1.5L72.9,331c-1.5,2.2-2.1,4.9-1.7,7.5s1.9,4.9,4.1,6.5l46,32.2c1.7,1.2,3.7,1.8,5.7,1.8
	c0.6,0,1.2-0.1,1.7-0.2c2.6-0.5,4.9-1.9,6.5-4.1l46.6-66.6c22.4,15.5,36.1,41,36.1,68.6c0,17.5-5.3,34-15.3,48h-42.4
	c-5.5,0-10,4.5-10,10v23.8c-5.1,1-10.4,1.5-15.7,1.5c-26.3,0-50.4-12.1-66-32.4h54.2c5.5,0,10-4.5,10-10s-4.5-10-10-10H50.8H-4.6
	h-16.7c-5.5,0-10,4.5-10,10s4.5,10,10,10h9.4c10,28.6,28.5,54.2,52.7,72.6c27.1,20.6,59.6,31.5,93.7,31.5c5.2,0,10.5-0.3,15.7-0.8
	v10.6H17.8c-5.5,0-10,4.5-10,10V594h-18.2c-5.5,0-10,4.5-10,10c0,5.5,4.5,10,10,10h28.1c0,0,0,0,0,0h233.8c0,0,0,0,0,0h28.1
	c5.5,0,10-4.5,10-10C289.7,598.5,285.2,594,279.7,594z M181.5,210.7l29.6,20.8l-10.5,15c0,0,0,0,0,0l-9,12.9L162,238.6L181.5,210.7z
	 M124.6,355.1L95,334.3l55.6-79.4l29.6,20.8L124.6,355.1z M193.4,291.8l3.2-4.6l2.1,1.5c1.7,1.2,3.7,1.8,5.7,1.8
	c3.2,0,6.3-1.5,8.2-4.3c3.2-4.5,2.1-10.8-2.5-13.9l-2.1-1.5l3.5-5c36.1,25.1,58.1,66.8,58.1,111c0,41.2-19.2,80.3-51,105.7v-45.6
	c12.6-17.6,19.3-38.3,19.3-60.1C237.9,342.6,221.1,311,193.4,291.8z M134.6,511.9c-55,0-104.6-34-125.1-84.1h35.2
	c8.3,14.7,20.1,27.1,34.5,36.3c16.6,10.5,35.7,16.1,55.4,16.1c5.3,0,10.5-0.4,15.7-1.2v32C145.1,511.6,139.9,511.9,134.6,511.9z
	 M170.3,519.6v-53.1v-21.7h28.4v56.7v40.1h-28.4V519.6z M27.8,561.7h132.5h48.4h32.8V594H27.8V561.7z"/>
</svg>
