<?xml version="1.0" encoding="utf-8"?>
<!-- Generator: Adobe Illustrator 19.1.0, SVG Export Plug-In . SVG Version: 6.00 Build 0)  -->
<svg version="1.1" id="Capa_1" xmlns="http://www.w3.org/2000/svg" xmlns:xlink="http://www.w3.org/1999/xlink" x="0px" y="0px"
	 viewBox="-70 161.4 470.6 470.6" style="enable-background:new -70 161.4 470.6 470.6;" xml:space="preserve">
<style type="text/css">
	.st0{fill:#F26222;}
</style>
<g>
	<path class="st0" d="M257.1,161.4H20.2c-15.9,0-28.9,13-28.9,28.9v412.9c0,15.9,13,28.9,28.9,28.9h290.1
		c15.9,0,28.9-12.9,28.9-28.9V250.6L257.1,161.4z M263.9,204.6l36,39.1h-36V204.6z M315,603.1c0,2.5-2.1,4.6-4.6,4.6H20.2
		c-2.6,0-4.6-2.1-4.6-4.6V190.3c0-2.5,2.1-4.6,4.6-4.6h219.4v70.2c0,6.7,5.4,12.1,12.1,12.1H315V603.1z M58.4,290.3h205.8
		c5,0,9.1,4.1,9.1,9.1s-4.1,9.1-9.1,9.1H58.4c-5,0-9.1-4.1-9.1-9.1C49.3,294.4,53.4,290.3,58.4,290.3z M273.2,360.4
		c0,5-4.1,9.1-9.1,9.1H58.4c-5,0-9.1-4.1-9.1-9.1s4.1-9.1,9.1-9.1h205.8C269.2,351.3,273.2,355.4,273.2,360.4z M273.2,419.4
		c0,5-4.1,9.1-9.1,9.1H58.4c-5,0-9.1-4.1-9.1-9.1s4.1-9.1,9.1-9.1h205.8C269.2,410.3,273.2,414.4,273.2,419.4z M273.2,479.4
		c0,5-4.1,9.1-9.1,9.1H58.4c-5,0-9.1-4.1-9.1-9.1s4.1-9.1,9.1-9.1h205.8C269.2,470.3,273.2,474.4,273.2,479.4z"/>
</g>
</svg>
