<?xml version="1.0" encoding="utf-8"?>
<!-- Generator: Adobe Illustrator 19.1.0, SVG Export Plug-In . SVG Version: 6.00 Build 0)  -->
<svg version="1.1" id="Layer_1" xmlns="http://www.w3.org/2000/svg" xmlns:xlink="http://www.w3.org/1999/xlink" x="0px" y="0px"
	 viewBox="-51.5 163.5 425.7 466" style="enable-background:new -51.5 163.5 425.7 466;" xml:space="preserve">
<style type="text/css">
	.st0{fill:#F26222;stroke:#F26222;stroke-width:3;stroke-miterlimit:10;}
</style>
<g>
	<g>
		<g>
			<path class="st0" d="M370.9,473.9c-3.3-9-10.3-16-19.2-19.1c-8.9-3.1-18.6-2.2-26.7,2.7l-78.1,46.9l-10.8,4.6h-56.4
				c-0.7,0-1.1-0.4-1.3-0.7c-0.2-0.3-0.4-0.8-0.1-1.5c0.2-0.4,0.5-0.6,0.8-0.8l42.8-15.3c16.6-5.6,26.1-22.5,21.6-38.6
				c-2.3-8.5-7.9-15.4-15.6-19.5c-7.6-4-16.6-4.8-24.8-2.1l-44.2,14.7l-116,7.7c-7.6,0.5-14.8,3.8-20.2,9.2l-62.8,63.2
				c-12.1,12.1-13.2,31.3-2.6,43.7c2.8,3.3,15,14.9,33.2,32.3c10.6,10.1,20.6,19.7,25.4,24.5c1.5,1.5,3.4,2.2,5.3,2.2
				c1.7,0,3.4-0.6,4.8-1.7l34.6-28.9c7.3-6.1,16.5-9.4,25.9-9.4h118.6c4.3,0,8.5-0.9,12.4-2.5l56-24c0.2-0.1,0.3-0.1,0.5-0.2
				l2.8-1.5c0.2-0.1,0.3-0.2,0.4-0.2l79.3-47.6C370.1,503.9,376.1,487.9,370.9,473.9L370.9,473.9z M349,499.1l-79.1,47.4l-2.4,1.2
				l-55.8,23.9c-2.1,0.9-4.3,1.3-6.5,1.3H86.6c-13,0-25.6,4.6-35.5,12.9l-29.4,24.5c-5.4-5.1-12.9-12.3-20.8-19.8
				c-13.2-12.6-29.6-28.3-32.2-31.3c-5.5-6.4-4.7-16.8,1.8-23.3l63.1-63.1c2.8-2.8,6.6-4.5,10.6-4.8l116.9-7.8
				c0.6,0,1.3-0.2,1.9-0.4l45.1-15c1.7-0.6,3.5-0.9,5.2-0.9c2.7,0,5.3,0.7,7.7,1.9c4,2.2,6.9,5.8,8.2,10.2c2.3,8.3-3.1,17.5-12,20.4
				c-0.1,0-0.1,0-0.2,0.1l-42.9,15.3c-4.1,1.5-7.4,4.4-9.3,8.3c-2.5,5.2-2.2,11.1,0.8,16s8.3,7.8,14,7.8h57.9c1,0,2-0.2,3-0.6
				l12.6-5.4c0.3-0.1,0.6-0.3,0.9-0.5l78.6-47.2c4.2-2.5,9.3-3.1,14-1.4s8.3,5.3,10.1,10.1C359.5,486.2,356.1,494.8,349,499.1
				L349,499.1z"/>
			<path class="st0" d="M221.5,404c65.9,0,119.5-53.6,119.5-119.5S287.4,165,221.5,165S102,218.6,102,284.5S155.6,404,221.5,404z
				 M221.5,180c57.6,0,104.5,46.9,104.5,104.5S279.2,389,221.5,389S117,342.1,117,284.5S163.9,180,221.5,180z"/>
			<path class="st0" d="M191.1,305.5c0-3.1-2.6-5.6-5.6-5.6c-3.1,0-5.6,2.5-5.6,5.6c0,10.9,9.7,20,24,24.2v2.8
				c0,3.1,2.5,5.6,5.6,5.6c3.1,0,5.6-2.5,5.6-5.6v-0.7c2.1,0.2,4.2,0.3,6.4,0.3c2.2,0,4.3-0.1,6.4-0.3v0.7c0,3.1,2.5,5.6,5.6,5.6
				c3.1,0,5.6-2.5,5.6-5.6v-2.8c14.3-4.2,24-13.3,24-24.2s-9.7-20-24-24.2v-30.2c7.9,3,12.8,7.9,12.8,12.4c0,3.1,2.5,5.6,5.6,5.6
				s5.6-2.5,5.6-5.6c0-10.9-9.7-20-24-24.2v-2.8c0-3.1-2.6-5.6-5.6-5.6c-3.1,0-5.6,2.5-5.6,5.6v0.7c-2.1-0.2-4.2-0.3-6.4-0.3
				c-2.2,0-4.3,0.1-6.4,0.3v-0.7c0-3.1-2.6-5.6-5.6-5.6c-3.1,0-5.6,2.5-5.6,5.6v2.8c-14.3,4.2-24,13.4-24,24.2s9.7,20,24,24.2v30.2
				C196,314.9,191.1,310,191.1,305.5z M239.1,293.1c7.9,3,12.8,7.9,12.8,12.4s-4.8,9.4-12.8,12.4V293.1L239.1,293.1z M215.1,248.5
				c2-0.2,4.1-0.4,6.4-0.4s4.4,0.1,6.4,0.4v30.7c-2.1-0.2-4.2-0.3-6.4-0.3c-2.2,0-4.4-0.2-6.4-0.4V248.5z M215.1,289.8
				c2.1,0.2,4.2,0.3,6.4,0.3c2.2,0,4.4,0.2,6.4,0.4v30.1c-2,0.2-4.1,0.4-6.4,0.4s-4.4-0.2-6.4-0.4V289.8z M191.1,263.5
				c0-4.5,4.8-9.4,12.8-12.4v24.8C196,272.9,191.1,268,191.1,263.5z"/>
		</g>
	</g>
</g>
</svg>
