<?xml version="1.0" encoding="utf-8"?>
<!-- Generator: Adobe Illustrator 19.1.0, SVG Export Plug-In . SVG Version: 6.00 Build 0)  -->
<svg version="1.1" id="Layer_1" xmlns="http://www.w3.org/2000/svg" xmlns:xlink="http://www.w3.org/1999/xlink" x="0px" y="0px"
	 viewBox="0 0 322.5 94" style="enable-background:new 0 0 322.5 94;" xml:space="preserve">
<style type="text/css">
	.st0{fill-rule:evenodd;clip-rule:evenodd;fill:url(#SVGID_2_);}
	.st1{fill:#0983BB;}
	.st2{fill:#898989;}
	.st3{fill-rule:evenodd;clip-rule:evenodd;fill:url(#SVGID_4_);}
	.st4{fill-rule:evenodd;clip-rule:evenodd;fill:url(#SVGID_5_);}
</style>
<linearGradient id="SVGID_2_" gradientUnits="userSpaceOnUse" x1="60.1368" y1="76.846" x2="60.1368" y2="18.2232">
	<stop  offset="7.204640e-02" style="stop-color:#565759"/>
	<stop  offset="0.3015" style="stop-color:#D3D5D6"/>
	<stop  offset="0.682" style="stop-color:#616264"/>
</linearGradient>
<path class="st0" d="M79,62c-4.6,28-28.8,11.3-34.5-8.2c-8.3-20.2-0.9-46.2,19.8-31C47.2,15,45.4,37.7,52.7,53.9
	c6.1,13.5,19.3,22.2,25.7,8.3C78.7,62.1,78.9,62.1,79,62z"/>
<g>
	<g>
		<g>
			<path id="SVGID_1_" class="st1" d="M208.2,54.7h-7.2c-1.8,0-3.1,0.4-4.1,1.1c-1,0.7-1.4,1.8-1.4,3.2c0,2.8,1.8,4.2,5.5,4.2
				c1.3,0,2.4-0.1,3.2-0.3c0.8-0.3,1.7-0.7,2.4-1.4c0.8-0.8,1.3-2.4,1.3-4.5v-2.4H208.2z M208.4,68.1v-2.7c-1.1,1.1-2.2,2-3.5,2.4
				c-1.3,0.4-2.7,0.7-4.6,0.7c-1.8,0-3.4-0.3-4.8-0.7c-1.4-0.4-2.5-1.1-3.4-2.1c-1.5-1.7-2.4-3.8-2.4-6.5c0-1.7,0.4-3.2,1.3-4.5
				c0.8-1.3,2-2.4,3.5-3.1c1.5-0.7,3.5-1.1,5.8-1.1h8v-2.1c0-2-0.6-3.4-1.5-4.2c-1-0.8-2.7-1.4-5.1-1.4c-1.7,0-3,0.3-3.9,0.7
				s-1.8,1.1-2.7,2.2l-3.9-3.8c1.4-1.7,3-2.8,4.5-3.4c1.7-0.7,3.8-1,6.3-1c8.3,0,12.5,3.5,12.5,10.4v20.2h-6V68.1z M184.8,62.9h2.5
				v5.2h-3.7c-1.8,0-3.4-0.4-4.5-1.1c-1.3-0.8-2.2-1.8-2.8-3.1c-0.6-1.3-1-2.7-1-4.2V42.9H172v-4.6h3.4v-9.1h6v9.1h5.9v4.6h-5.9
				v16.3C181.4,61.8,182.5,62.9,184.8,62.9z M162.1,54.7H155c-1.8,0-3.1,0.4-4.1,1.1c-1,0.7-1.4,1.8-1.4,3.2c0,2.8,1.8,4.2,5.5,4.2
				c1.3,0,2.4-0.1,3.2-0.3c0.8-0.3,1.7-0.7,2.4-1.4c0.8-0.8,1.3-2.4,1.3-4.5v-2.4H162.1z M162.3,68.1v-2.7c-1.1,1.1-2.2,2-3.5,2.4
				c-1.3,0.4-2.7,0.7-4.6,0.7c-1.8,0-3.4-0.3-4.8-0.7c-1.4-0.4-2.5-1.1-3.4-2.1c-1.5-1.7-2.4-3.8-2.4-6.5c0-1.7,0.4-3.2,1.3-4.5
				c0.8-1.3,2-2.4,3.5-3.1c1.5-0.7,3.5-1.1,5.8-1.1h8v-2.1c0-2-0.6-3.4-1.5-4.2c-1-0.8-2.7-1.4-5.1-1.4c-1.7,0-3,0.3-3.9,0.7
				c-1,0.4-1.8,1.1-2.7,2.2l-3.9-3.8c1.4-1.7,3-2.8,4.5-3.4c1.7-0.7,3.8-1,6.3-1c8.3,0,12.5,3.5,12.5,10.4v20.2h-6V68.1z
				 M133.6,40.8c-0.1-1.3-0.3-2.5-0.6-3.8c-0.3-1.1-0.8-2.1-1.5-3c-1.7-2-4.2-3-7.2-3h-8V62h7.9c3.1,0,5.5-1,7.2-2.8
				c1-1.1,1.7-2.7,1.8-4.5c0.3-2,0.4-4.6,0.4-8.3C133.6,44.1,133.6,42.2,133.6,40.8z M139.8,54.6c-0.1,1.7-0.6,3.4-1.3,5.1
				c-0.6,1.7-1.5,3.1-2.8,4.4c-2.7,2.7-6.3,3.9-11,3.9h-14.9V25.5h14.9c4.6,0,8.3,1.3,11,3.9c1.3,1.3,2.2,2.7,2.8,4.2
				c0.6,1.5,1,3.2,1.3,4.8c0.1,1.7,0.3,3.5,0.3,5.8v2.1v2.1C140.1,50.9,140.1,52.9,139.8,54.6z"/>
		</g>
	</g>
	<g>
		<g>
			<path id="SVGID_3_" class="st2" d="M303.2,48.8c-0.1-0.6-0.4-1.4-0.7-2.4c-0.6-1.5-1.5-2.7-3-3.5s-2.8-1.3-4.5-1.3
				s-3.1,0.4-4.5,1.3s-2.4,2.1-3,3.5c-0.4,1-0.6,1.7-0.7,2.4c-0.1,0.7-0.3,1.7-0.3,3h16.9C303.3,50.5,303.3,49.4,303.2,48.8z
				 M286.5,54.3c0,3.7,0.8,6.5,2.4,8.4c1.5,2,3.9,3,6.9,3c1.7,0,3.1-0.3,4.2-0.8c1.1-0.6,2.4-1.4,3.7-2.7l2.2,1.8
				c-1.5,1.5-3.1,2.7-4.6,3.4c-1.5,0.7-3.5,1-5.8,1c-2.7,0-4.9-0.6-6.7-1.7c-1.8-1.1-3.2-2.8-4.1-4.9c-1-2.2-1.4-4.9-1.4-8.1
				c0-2.4,0.3-4.4,0.8-6.2c0.6-1.8,1.3-3.4,2.2-4.6c1-1.3,2.2-2.2,3.7-3s3.1-1,4.8-1c1.8,0,3.4,0.3,4.8,1c1.4,0.6,2.7,1.5,3.7,2.8
				c1,1.3,1.8,2.7,2.2,4.4c0.6,1.7,0.8,3.7,0.8,5.9v1.4H286.5z M276.9,65.4h2.1v2.7h-2.7c-1.4,0-2.7-0.3-3.8-1
				c-1-0.7-1.8-1.5-2.4-2.7c-0.6-1.1-0.8-2.4-0.8-3.9v-19h-3.9v-2.2h3.9v-9.1h3.1v9.1h6.5v2.2h-6.5v19
				C272.4,63.7,274,65.4,276.9,65.4z M260.1,68.1H257V39.3h3.1V68.1z M256.7,29.3v-3.8h3.8v3.8H256.7z M242.5,30.7
				c-2-1.8-4.4-2.7-7.2-2.7c-1.5,0-3,0.3-4.4,0.8s-2.7,1.4-3.7,2.4c-0.7,0.7-1.4,1.5-1.8,2.4s-0.7,1.8-1,3.1
				c-0.3,1.3-0.4,2.7-0.4,4.2s-0.1,3.5-0.1,5.8c0,3.4,0,5.9,0.1,7.7c0.1,1.8,0.4,3.2,0.8,4.5s1.1,2.4,2.1,3.2
				c1.1,1.1,2.2,1.8,3.7,2.4c1.4,0.6,2.8,0.8,4.4,0.8c1.8,0,3.7-0.4,5.2-1.1c1.5-0.7,2.8-1.8,3.9-3.4c1.1-1.4,1.8-3.1,2.2-5.1h3.1
				c-0.4,2.5-1.4,4.8-2.7,6.6c-1.3,1.8-3,3.2-5.1,4.2c-2,1-4.2,1.5-6.7,1.5c-2,0-3.9-0.4-5.8-1.1s-3.5-1.8-4.8-3.2
				c-1.3-1.3-2.1-2.5-2.7-3.9c-0.6-1.4-0.8-3-1-4.8c-0.1-1.8-0.1-4.6-0.1-8.4s0-6.6,0.1-8.4c0.1-1.8,0.4-3.4,1-4.8
				c0.6-1.4,1.4-2.7,2.7-3.9c1.4-1.4,3-2.4,4.8-3.2c2-0.7,3.9-1.1,6-1.1c2.5,0,4.8,0.6,6.7,1.5c2,1,3.7,2.4,5.1,4.2
				c1.3,1.8,2.2,4.1,2.7,6.6h-3.2C245.9,34.6,244.5,32.4,242.5,30.7z"/>
		</g>
	</g>
</g>
<linearGradient id="SVGID_4_" gradientUnits="userSpaceOnUse" x1="20.7828" y1="47.5346" x2="94.1012" y2="47.5346">
	<stop  offset="0.429" style="stop-color:#00AEEF"/>
	<stop  offset="0.7215" style="stop-color:#004968"/>
</linearGradient>
<path class="st3" d="M20.8,62.1c0.5,0.1,1,0.2,1.6,0.3c26.6,5.3,66.2-1.7,71.3-14.6C97.7,37.4,75.4,30,49.3,30.9c-0.5,0-1,0-1.5,0.1
	c13.9,1.4,26.4,6.9,21.4,15.5C63.7,55.9,40.5,62.2,20.8,62.1"/>
<linearGradient id="SVGID_5_" gradientUnits="userSpaceOnUse" x1="20.9504" y1="48.5701" x2="94.1979" y2="48.5701">
	<stop  offset="0.5279" style="stop-color:#005493"/>
	<stop  offset="0.8932" style="stop-color:#00AEEF"/>
</linearGradient>
<path class="st4" d="M21,62.1c0.3,0.1,0.5,0.1,0.8,0.2c0.3,0.1,0.5,0.1,0.8,0.2c13.3,2.6,29.8,2.2,43.6-0.5
	c13.8-2.7,25-7.7,27.7-14.1c0.5-1.1,0.5-2.4,0.2-3.8c-0.3-1.3-1.1-2.7-2.3-3.8c-1.6-1.7-4.4-3.2-6.8-4.3c-2.6-1.5-9.9-3.1-9.9-3.1
	s0.9,2.2-0.4,5.9c-1.2,3.5-3.7,6.7-5.2,7.7c-3.7,4-10.9,7.9-19.6,10.8C41.1,60.2,30.8,62.2,21,62.1"/>
<g>
</g>
<g>
</g>
<g>
</g>
<g>
</g>
<g>
</g>
<g>
</g>
</svg>
