<?xml version="1.0" encoding="utf-8"?>
<!-- Generator: Adobe Illustrator 19.1.0, SVG Export Plug-In . SVG Version: 6.00 Build 0)  -->
<svg version="1.1" id="Capa_1" xmlns="http://www.w3.org/2000/svg" xmlns:xlink="http://www.w3.org/1999/xlink" x="0px" y="0px"
	 viewBox="-180 271.7 250.3 250.3" style="enable-background:new -180 271.7 250.3 250.3;" xml:space="preserve">
<style type="text/css">
	.st0{fill:none;stroke:#0983BB;stroke-width:10;stroke-miterlimit:10;}
	.st1{fill:#3F3F3F;}
</style>
<g id="Search">
	<circle class="st0" cx="-54.8" cy="396.9" r="117.5"/>
</g>
<g>
	<path class="st1" d="M2.7,372.6c-3.3-7.7-7.8-14.4-13.3-19.9c-5.6-5.6-12.2-10-19.9-13.3s-15.8-5-24.3-5c-8,0-15.7,1.5-23.2,4.5
		s-14.1,7.3-19.9,12.7l-10.6-10.5c-1.6-1.7-3.5-2.1-5.6-1.1c-2.2,0.9-3.3,2.5-3.3,4.8v36.5c0,1.4,0.5,2.6,1.5,3.7
		c1,1,2.3,1.5,3.7,1.5h36.5c2.3,0,3.9-1.1,4.8-3.3c0.9-2.1,0.5-4-1.1-5.6l-11.1-11.2c3.8-3.6,8.1-6.3,13-8.3
		c4.9-1.9,10-2.9,15.3-2.9c5.6,0,11,1.1,16.2,3.3c5.1,2.2,9.6,5.2,13.3,8.9c3.7,3.7,6.7,8.2,8.9,13.3c2.2,5.1,3.3,10.5,3.3,16.2
		c0,5.6-1.1,11-3.3,16.2c-2.2,5.1-5.2,9.6-8.9,13.3c-3.7,3.7-8.2,6.7-13.3,8.9c-5.1,2.2-10.5,3.3-16.2,3.3c-6.5,0-12.6-1.4-18.3-4.2
		c-5.8-2.8-10.6-6.8-14.6-12c-0.4-0.5-1-0.9-1.9-1c-0.8,0-1.5,0.2-2,0.7l-11.1,11.2c-0.4,0.4-0.7,1-0.7,1.7s0.2,1.3,0.5,1.8
		c5.9,7.2,13.1,12.7,21.5,16.6s17.3,5.9,26.6,5.9c8.5,0,16.5-1.7,24.3-5c7.7-3.3,14.3-7.8,19.9-13.3c5.6-5.6,10-12.2,13.3-19.9
		s5-15.8,5-24.3C7.7,388.4,6,380.3,2.7,372.6z"/>
</g>
</svg>
