<?xml version="1.0" encoding="utf-8"?>
<!-- Generator: Adobe Illustrator 19.1.0, SVG Export Plug-In . SVG Version: 6.00 Build 0)  -->
<svg version="1.1" id="Capa_1" xmlns="http://www.w3.org/2000/svg" xmlns:xlink="http://www.w3.org/1999/xlink" x="0px" y="0px"
	 viewBox="-180 271.7 250.3 250.3" style="enable-background:new -180 271.7 250.3 250.3;" xml:space="preserve">
<style type="text/css">
	.st0{fill:none;stroke:#0983BB;stroke-width:10;stroke-miterlimit:10;}
	.st1{fill:#3F3F3F;}
</style>
<g id="Search">
	<circle class="st0" cx="-54.8" cy="396.9" r="117.5"/>
</g>
<g>
	<g>
		<path class="st1" d="M-71.7,433.5l-6.3,6.3c-5.5,5.4-14.4,5.4-19.9,0c-2.6-2.6-4.1-6.1-4.1-9.8s1.4-7.2,4.1-9.8l23.3-23.1
			c4.8-4.8,13.9-11.8,20.5-5.3c3,3,7.9,3,11,0c3-3,3-7.9,0-11c-11.2-11.2-27.9-9.1-42.3,5.3l-23.3,23.1c-5.6,5.5-8.7,12.9-8.7,20.8
			s3.1,15.2,8.7,20.8c5.7,5.7,13.3,8.6,20.8,8.6c7.6,0,15.1-2.9,20.9-8.6l6.3-6.3c3-3,3.1-7.9,0-11
			C-63.7,430.5-68.5,430.5-71.7,433.5z M-1,343.8c-12.1-12-29-12.6-40.1-1.5l-7.9,7.8c-3,3-3.1,7.9,0,11c3,3,7.9,3.1,11,0l7.9-7.8
			c5.8-5.8,13.4-3.4,18.3,1.5c2.6,2.6,4.1,6.1,4.1,9.8s-1.5,7.2-4.1,9.8l-25,24.6c-11.4,11.3-16.7,6-19,3.7c-3-3-7.9-3-11,0
			c-3,3-3,7.9,0,11c5.2,5.2,11.2,7.7,17.4,7.7c7.6,0,15.7-3.8,23.4-11.5l25-24.6c5.6-5.5,8.7-12.9,8.7-20.8
			C7.7,356.7,4.6,349.3-1,343.8z"/>
	</g>
</g>
</svg>
