<?xml version="1.0" encoding="utf-8"?>
<!-- Generator: Adobe Illustrator 19.1.0, SVG Export Plug-In . SVG Version: 6.00 Build 0)  -->
<svg version="1.1" id="Capa_1" xmlns="http://www.w3.org/2000/svg" xmlns:xlink="http://www.w3.org/1999/xlink" x="0px" y="0px"
	 viewBox="-180 271.7 250.3 250.3" style="enable-background:new -180 271.7 250.3 250.3;" xml:space="preserve">
<style type="text/css">
	.st0{fill:none;stroke:#0983BB;stroke-width:10;stroke-miterlimit:10;}
	.st1{fill:#3F3F3F;}
</style>
<g id="Search">
	<circle class="st0" cx="-54.9" cy="396.9" r="117.5"/>
</g>
<g>
	<g>
		<path class="st1" d="M-73.3,346.2H-101c-3.8,0-7.1,1.3-9.8,4c-2.7,2.7-4,6-4,9.8v27.7c0,3.8,1.3,7.1,4,9.8c2.7,2.7,6,4,9.8,4h16.2
			c1.9,0,3.6,0.7,4.9,2s2,3,2,4.9v2.3c0,5.1-1.8,9.4-5.4,13.1c-3.6,3.6-8,5.4-13.1,5.4h-4.6c-1.3,0-2.3,0.5-3.2,1.4
			c-0.9,0.9-1.4,2-1.4,3.2v9.2c0,1.2,0.5,2.3,1.4,3.2c0.9,0.9,2,1.4,3.2,1.4h4.6c5,0,9.8-1,14.3-2.9s8.5-4.6,11.8-7.9
			s5.9-7.2,7.9-11.8c1.9-4.5,2.9-9.3,2.9-14.3v-50.8c0-3.8-1.3-7.1-4-9.8C-66.2,347.5-69.5,346.2-73.3,346.2z"/>
		<path class="st1" d="M1.1,350.2c-2.7-2.7-6-4-9.8-4h-27.7c-3.8,0-7.1,1.3-9.8,4s-4,6-4,9.8v27.7c0,3.8,1.3,7.1,4,9.8
			c2.7,2.7,6,4,9.8,4h16.2c1.9,0,3.6,0.7,4.9,2s2,3,2,4.9v2.3c0,5.1-1.8,9.4-5.4,13.1c-3.6,3.6-8,5.4-13.1,5.4h-4.6
			c-1.2,0-2.3,0.5-3.2,1.4s-1.4,2-1.4,3.2v9.2c0,1.2,0.5,2.3,1.4,3.2c0.9,0.9,2,1.4,3.2,1.4h4.6c5,0,9.8-1,14.3-2.9
			s8.5-4.6,11.8-7.9s6-7.2,7.9-11.8c1.9-4.5,2.9-9.3,2.9-14.3v-50.8C5.2,356.2,3.8,352.9,1.1,350.2z"/>
	</g>
</g>
</svg>
