<?xml version="1.0" encoding="utf-8"?>
<!-- Generator: Adobe Illustrator 19.1.0, SVG Export Plug-In . SVG Version: 6.00 Build 0)  -->
<svg version="1.1" xmlns="http://www.w3.org/2000/svg" xmlns:xlink="http://www.w3.org/1999/xlink" x="0px" y="0px"
	 viewBox="0 0 900 360" style="enable-background:new 0 0 900 360;" xml:space="preserve">
<style type="text/css">
	.st0{fill:#2DBCEC;}
	.st1{fill:#FFFFFF;}
	.st2{opacity:0.15;}
	.st3{fill:#9AC21F;}
</style>
<g id="background">
</g>
<g id="objects">
	<g>
		<g>
			<ellipse class="st0" cx="797.6" cy="226.6" rx="94.9" ry="93.8"/>
			<path class="st1" d="M855.9,209.4l-50.1-28.6v16.8h-32.5c-15,0-27.2,12-27.2,26.8v47.9h21.4v-47.9c0-3.1,2.6-5.7,5.8-5.7h32.5
				V238L855.9,209.4z"/>
			<path class="st2" d="M855.9,209.4L805.7,238v-19.2h-32.5c-3.1,0-5.8,2.6-5.8,5.7v47.9h-21.2l48.5,47.9c0.9,0,1.9,0.1,2.8,0.1
				c46.4,0,85-32.9,93.2-76.4L855.9,209.4z"/>
		</g>
		<g>
			<circle class="st3" cx="682.3" cy="126.7" r="94.3"/>
			<polygon class="st1" points="630.8,94.9 645.8,126.7 630.7,158.8 694.2,142.5 691.2,171.5 740.8,126.7 691.2,81.8 694.3,110.9 
							"/>
			<path class="st2" d="M740.7,126.8l-49.6,44.7l3-29l-63.4,16.3l61.7,61.7c36.8-4,67.2-29.1,78.9-63L740.7,126.8z"/>
		</g>
		<g>
			<circle class="st0" cx="563.6" cy="220.2" r="94.3"/>
			<path class="st1" d="M545.4,187.7l19.1,18.5h-47.4v28.3h47.4l-19.6,16l19.6,19.6l50-50l-49.7-49.7
				C564.8,170.4,544.7,186.9,545.4,187.7z"/>
			<path class="st2" d="M614.3,219.9C614.3,219.9,614.3,219.9,614.3,219.9l0.1,0.2l-50,50l-19.6-19.6l19.6-16h-46.4
				c-0.1,0.1-0.2,0.3-0.3,0.4l74.9,74.9c26.3-8.5,47.5-28.3,57.9-53.6L614.3,219.9z"/>
		</g>
		<g>
			<circle class="st3" cx="450.1" cy="126.6" r="92.7"/>
			<polygon class="st1" points="418.2,79.5 459,103 499.9,126.6 459,150.2 418.2,173.8 			"/>
			<path class="st2" d="M499.8,126.7L459,150.2l-40.8,23.5l44.7,44.7c32.9-4.5,60.3-26.3,72.7-55.9L499.8,126.7z"/>
		</g>
		<g>
			<circle class="st0" cx="334.3" cy="220.2" r="94.3"/>
			<polygon class="st1" points="306.7,185.1 343.4,220.5 307.2,255.8 325.8,274.8 381.1,220.5 325.3,165.6 			"/>
			<g>
				<polygon class="st0" points="374.7,214.2 374.7,214.2 378,217.5 				"/>
				<polygon class="st0" points="319.9,269 325.2,274.3 320,268.9 				"/>
				<path class="st2" d="M420,259.5l-39-39l-55.3,54.4l35.7,35.7C387.5,302.7,408.8,283.9,420,259.5z"/>
			</g>
		</g>
		<g>
			<circle class="st3" cx="228.6" cy="126.5" r="94.3"/>
			<polygon class="st1" points="195.9,75.6 240,101.1 284.1,126.5 240,152 195.9,177.4 219.6,126.5 			"/>
			<g>
				<path class="st2" d="M316.9,159.6l-33-33L240,152l-43.8,25.3l42.9,42.9C274.9,216.3,304.7,192.2,316.9,159.6z"/>
			</g>
		</g>
		<g>
			<circle class="st0" cx="101.4" cy="218.3" r="94.3"/>
			<path class="st1" d="M155.8,218c0.2-3.8-1.7-7.7-4.6-10.6l-28.5-28.5c-5.5-5.5-13-6-18.5-0.5c-5.5,5.5-5.2,13,2,20.2l6.4,6.4
				l-54.4,0.1c-8,0-14.6,5.6-14.6,13.7c0,8,6.6,13.7,14.6,13.7h54.4l-8.4,7.6c-6.6,6.8-5.8,13.7-0.3,19.2c5.5,5.5,13.6,4.2,19.1-1.3
				l28.5-28.5c2.9-2.9,4.5-6.3,4.3-10.1C155.9,219,155.8,218.2,155.8,218z"/>
			<path class="st2" d="M154.4,210.7c-0.1,0.2-0.2,0.3-0.3,0.5c1.2,2.1,1.8,4.5,1.7,6.8c0,0.2,0,1,0,1.3c0.2,3.8-1.4,7.2-4.3,10.1
				L123,257.9c-5.5,5.5-13.6,6.8-19.1,1.3c-5.5-5.5-6.3-12.4,0.3-19.2l8.4-7.6H58.2c-3.6,0-7-1.2-9.5-3.2l79.5,79.5
				c29.8-8.8,53.4-31.9,62.9-61.3L154.4,210.7z"/>
		</g>
	</g>
</g>
</svg>
