<?xml version="1.0" encoding="utf-8"?>
<!-- Generator: Adobe Illustrator 19.1.0, SVG Export Plug-In . SVG Version: 6.00 Build 0)  -->
<svg version="1.1" id="Capa_1" xmlns="http://www.w3.org/2000/svg" xmlns:xlink="http://www.w3.org/1999/xlink" x="0px" y="0px"
	 viewBox="-180 271.7 250.3 250.3" style="enable-background:new -180 271.7 250.3 250.3;" xml:space="preserve">
<style type="text/css">
	.st0{fill:#3F3F3F;}
	.st1{fill:none;stroke:#0983BB;stroke-width:10;stroke-miterlimit:10;}
</style>
<g id="Search">
	<path class="st0" d="M5.6,441.1l-26.9-26.8c-0.1-0.1-0.3-0.2-0.5-0.4c5.3-8,8.4-17.6,8.4-27.9c0-28-22.7-50.8-50.8-50.8
		S-115,357.9-115,386c0,28,22.7,50.8,50.8,50.8c10.3,0,19.9-3.1,27.9-8.4c0.1,0.1,0.2,0.3,0.4,0.5l26.8,26.8c4,4,10.6,4,14.6,0
		C9.6,451.7,9.6,445.1,5.6,441.1z M-64.2,419.1c-18.3,0-33.2-14.9-33.2-33.2c0-18.3,14.9-33.2,33.2-33.2s33.2,14.9,33.2,33.2
		S-45.8,419.1-64.2,419.1z"/>
	<circle class="st1" cx="-54.8" cy="396.9" r="117.5"/>
</g>
</svg>
