<svg id="Ebene_1" data-name="Ebene 1" xmlns="http://www.w3.org/2000/svg" viewBox="0 0 130 103.8"><defs><style>.cls-1{fill:#1d1d1b;}</style></defs><title>DataCite-Logo</title><path class="cls-1" d="M5,73.56c.86.15,1.64.3,2.65.46C51.2,82.55,116,70.94,124.25,49.82c6.49-17.07-30.06-29-72.73-27.47a13.84,13.84,0,0,0-2.49.17c22.74,2.2,43.25,11.18,35.11,25.29C75.22,63.26,37.32,73.63,5,73.56"/><path class="cls-1" d="M100.32,75.47C92.89,121.27,53.26,94,43.83,62.21,30.2,29.15,42.16-13.4,76.1,11.44,48-1.34,45.17,35.89,57.23,62.34c10,22.09,31.71,36.28,42.08,13.44.47-.16.86-.16,1-.31"/></svg>